<?xml version="1.0" encoding="utf-8" standalone="no"?>
<!DOCTYPE svg PUBLIC "-//W3C//DTD SVG 1.1//EN"
  "http://www.w3.org/Graphics/SVG/1.1/DTD/svg11.dtd">
<!-- Created with matplotlib (https://matplotlib.org/) -->
<svg height="619.792586pt" version="1.1" viewBox="0 0 581.77735 619.792586" width="581.77735pt" xmlns="http://www.w3.org/2000/svg" xmlns:xlink="http://www.w3.org/1999/xlink">
 <defs>
  <style type="text/css">
*{stroke-linecap:butt;stroke-linejoin:round;}
  </style>
 </defs>
 <g id="figure_1">
  <g id="patch_1">
   <path d="M 0 619.792586 
L 581.77735 619.792586 
L 581.77735 0 
L 0 0 
z
" style="fill:#ffffff;"/>
  </g>
  <g id="axes_1">
   <g id="patch_2">
    <path d="M 98.61 559.158281 
L 545.01 559.158281 
L 545.01 15.558281 
L 98.61 15.558281 
z
" style="fill:#ffffff;"/>
   </g>
   <g id="PolyCollection_1">
    <defs>
     <path d="M 98.61 -123.148305 
L 98.61 -75.583305 
L 162.381429 -75.583305 
L 226.152857 -75.583305 
L 289.924286 -75.583305 
L 353.695714 -75.583305 
L 417.467143 -75.583305 
L 481.238571 -75.583305 
L 545.01 -75.583305 
L 545.01 -123.148305 
L 545.01 -123.148305 
L 481.238571 -123.148305 
L 417.467143 -123.148305 
L 353.695714 -123.148305 
L 289.924286 -123.148305 
L 226.152857 -123.148305 
L 162.381429 -123.148305 
L 98.61 -123.148305 
z
" id="m084e186f17" style="stroke:#d3d3d3;stroke-opacity:0.5;"/>
    </defs>
    <g clip-path="url(#p0fb2172177)">
     <use style="fill:#d3d3d3;fill-opacity:0.5;stroke:#d3d3d3;stroke-opacity:0.5;" x="0" xlink:href="#m084e186f17" y="619.792586"/>
    </g>
   </g>
   <g id="PolyCollection_2">
    <defs>
     <path d="M 98.61 -170.713305 
L 98.61 -123.148305 
L 162.381429 -123.148305 
L 226.152857 -123.148305 
L 289.924286 -123.148305 
L 353.695714 -123.148305 
L 417.467143 -123.148305 
L 481.238571 -123.148305 
L 545.01 -123.148305 
L 545.01 -170.713305 
L 545.01 -170.713305 
L 481.238571 -170.713305 
L 417.467143 -170.713305 
L 353.695714 -170.713305 
L 289.924286 -170.713305 
L 226.152857 -170.713305 
L 162.381429 -170.713305 
L 98.61 -170.713305 
z
" id="mfa7449691a" style="stroke:#d3d3d3;stroke-opacity:0.1;"/>
    </defs>
    <g clip-path="url(#p0fb2172177)">
     <use style="fill:#d3d3d3;fill-opacity:0.1;stroke:#d3d3d3;stroke-opacity:0.1;" x="0" xlink:href="#mfa7449691a" y="619.792586"/>
    </g>
   </g>
   <g id="PolyCollection_3">
    <defs>
     <path d="M 98.61 -583.988987 
L 98.61 -583.988987 
L 162.381429 -584.582475 
L 226.152857 -580.55173 
L 289.924286 -574.000994 
L 353.695714 -565.368016 
L 417.467143 -554.296682 
L 481.238571 -548.794866 
L 545.01 -538.1033 
L 545.01 -392.586454 
L 545.01 -392.586454 
L 481.238571 -423.863962 
L 417.467143 -452.007211 
L 353.695714 -484.403209 
L 289.924286 -532.225319 
L 226.152857 -543.250701 
L 162.381429 -551.832261 
L 98.61 -583.988987 
z
" id="me46e9d8d07" style="stroke:#239e70;stroke-opacity:0.3;"/>
    </defs>
    <g clip-path="url(#p0fb2172177)">
     <use style="fill:#239e70;fill-opacity:0.3;stroke:#239e70;stroke-opacity:0.3;" x="0" xlink:href="#me46e9d8d07" y="619.792586"/>
    </g>
   </g>
   <g id="PolyCollection_4">
    <defs>
     <path d="M 98.61 -583.988987 
L 98.61 -583.988987 
L 162.381429 -551.832261 
L 226.152857 -543.250701 
L 289.924286 -532.225319 
L 353.695714 -484.403209 
L 417.467143 -452.007211 
L 481.238571 -423.863962 
L 545.01 -392.586454 
L 545.01 -266.209002 
L 545.01 -266.209002 
L 481.238571 -300.793536 
L 417.467143 -336.017681 
L 353.695714 -379.875443 
L 289.924286 -431.246221 
L 226.152857 -483.209796 
L 162.381429 -529.055755 
L 98.61 -583.988987 
z
" id="mb2f4d4f4d0" style="stroke:#d37211;stroke-opacity:0.1;"/>
    </defs>
    <g clip-path="url(#p0fb2172177)">
     <use style="fill:#d37211;fill-opacity:0.1;stroke:#d37211;stroke-opacity:0.1;" x="0" xlink:href="#mb2f4d4f4d0" y="619.792586"/>
    </g>
   </g>
   <g id="PolyCollection_5">
    <defs>
     <path d="M 98.61 -583.988987 
L 98.61 -583.988987 
L 162.381429 -529.055755 
L 226.152857 -483.209796 
L 289.924286 -431.246221 
L 353.695714 -379.875443 
L 417.467143 -336.017681 
L 481.238571 -300.793536 
L 545.01 -266.209002 
L 545.01 -204.822116 
L 545.01 -204.822116 
L 481.238571 -233.948544 
L 417.467143 -276.893663 
L 353.695714 -324.796443 
L 289.924286 -382.878926 
L 226.152857 -445.086491 
L 162.381429 -508.87349 
L 98.61 -583.988987 
z
" id="m756749fb67" style="stroke:#d37211;stroke-opacity:0.2;"/>
    </defs>
    <g clip-path="url(#p0fb2172177)">
     <use style="fill:#d37211;fill-opacity:0.2;stroke:#d37211;stroke-opacity:0.2;" x="0" xlink:href="#m756749fb67" y="619.792586"/>
    </g>
   </g>
   <g id="PolyCollection_6">
    <defs>
     <path d="M 98.61 -583.988987 
L 98.61 -583.988987 
L 162.381429 -508.87349 
L 226.152857 -445.086491 
L 289.924286 -382.878926 
L 353.695714 -324.796443 
L 417.467143 -276.893663 
L 481.238571 -233.948544 
L 545.01 -204.822116 
L 545.01 -157.317103 
L 545.01 -157.317103 
L 481.238571 -187.403452 
L 417.467143 -228.452725 
L 353.695714 -271.352984 
L 289.924286 -338.832124 
L 226.152857 -409.289747 
L 162.381429 -488.954317 
L 98.61 -583.988987 
z
" id="m4eb3726b61" style="stroke:#d37211;stroke-opacity:0.3;"/>
    </defs>
    <g clip-path="url(#p0fb2172177)">
     <use style="fill:#d37211;fill-opacity:0.3;stroke:#d37211;stroke-opacity:0.3;" x="0" xlink:href="#m4eb3726b61" y="619.792586"/>
    </g>
   </g>
   <g id="PolyCollection_7">
    <defs>
     <path d="M 98.61 -583.988987 
L 98.61 -583.988987 
L 162.381429 -480.693524 
L 226.152857 -392.971442 
L 289.924286 -323.672841 
L 353.695714 -265.528542 
L 417.467143 -216.021668 
L 481.238571 -180.336174 
L 545.01 -152.575851 
L 545.01 -157.317103 
L 545.01 -157.317103 
L 481.238571 -187.403452 
L 417.467143 -228.452725 
L 353.695714 -271.352984 
L 289.924286 -338.832124 
L 226.152857 -409.289747 
L 162.381429 -488.954317 
L 98.61 -583.988987 
z
" id="me754caadf9" style="stroke:#dd335f;stroke-opacity:0.3;"/>
    </defs>
    <g clip-path="url(#p0fb2172177)">
     <use style="fill:#dd335f;fill-opacity:0.3;stroke:#dd335f;stroke-opacity:0.3;" x="0" xlink:href="#me754caadf9" y="619.792586"/>
    </g>
   </g>
   <g id="PolyCollection_8">
    <defs>
     <path d="M 98.61 -583.988987 
L 98.61 -583.988987 
L 162.381429 -480.693524 
L 226.152857 -388.775627 
L 289.924286 -317.429037 
L 353.695714 -258.649692 
L 417.467143 -208.943603 
L 481.238571 -174.390396 
L 545.01 -147.804412 
L 545.01 -152.575851 
L 545.01 -152.575851 
L 481.238571 -180.336174 
L 417.467143 -216.021668 
L 353.695714 -265.528542 
L 289.924286 -323.672841 
L 226.152857 -392.971442 
L 162.381429 -480.693524 
L 98.61 -583.988987 
z
" id="m60753654d3" style="stroke:#0c508e;stroke-opacity:0.3;"/>
    </defs>
    <g clip-path="url(#p0fb2172177)">
     <use style="fill:#0c508e;fill-opacity:0.3;stroke:#0c508e;stroke-opacity:0.3;" x="0" xlink:href="#m60753654d3" y="619.792586"/>
    </g>
   </g>
   <g id="PolyCollection_9">
    <defs>
     <path d="M 98.61 -60.634305 
L 98.61 -75.583305 
L 162.381429 -75.583305 
L 226.152857 -75.583305 
L 289.924286 -75.583305 
L 353.695714 -75.583305 
L 417.467143 -75.583305 
L 481.238571 -75.583305 
L 545.01 -75.583305 
L 545.01 -60.634305 
L 545.01 -60.634305 
L 481.238571 -60.634305 
L 417.467143 -60.634305 
L 353.695714 -60.634305 
L 289.924286 -60.634305 
L 226.152857 -60.634305 
L 162.381429 -60.634305 
L 98.61 -60.634305 
z
" id="m4162401396" style="stroke:#008000;stroke-opacity:0.1;"/>
    </defs>
    <g clip-path="url(#p0fb2172177)">
     <use style="fill:#008000;fill-opacity:0.1;stroke:#008000;stroke-opacity:0.1;" x="0" xlink:href="#m4162401396" y="619.792586"/>
    </g>
   </g>
   <g id="matplotlib.axis_1">
    <g id="xtick_1">
     <g id="line2d_1">
      <defs>
       <path d="M 0 0 
L 0 3.5 
" id="me1fde3e22f" style="stroke:#000000;stroke-width:0.8;"/>
      </defs>
      <g>
       <use style="stroke:#000000;stroke-width:0.8;" x="98.61" xlink:href="#me1fde3e22f" y="559.158281"/>
      </g>
     </g>
     <g id="text_1">
      <!-- 2015 -->
      <defs>
       <path d="M 19.1875 8.296875 
L 53.609375 8.296875 
L 53.609375 0 
L 7.328125 0 
L 7.328125 8.296875 
Q 12.9375 14.109375 22.625 23.890625 
Q 32.328125 33.6875 34.8125 36.53125 
Q 39.546875 41.84375 41.421875 45.53125 
Q 43.3125 49.21875 43.3125 52.78125 
Q 43.3125 58.59375 39.234375 62.25 
Q 35.15625 65.921875 28.609375 65.921875 
Q 23.96875 65.921875 18.8125 64.3125 
Q 13.671875 62.703125 7.8125 59.421875 
L 7.8125 69.390625 
Q 13.765625 71.78125 18.9375 73 
Q 24.125 74.21875 28.421875 74.21875 
Q 39.75 74.21875 46.484375 68.546875 
Q 53.21875 62.890625 53.21875 53.421875 
Q 53.21875 48.921875 51.53125 44.890625 
Q 49.859375 40.875 45.40625 35.40625 
Q 44.1875 33.984375 37.640625 27.21875 
Q 31.109375 20.453125 19.1875 8.296875 
z
" id="DejaVuSans-50"/>
       <path d="M 31.78125 66.40625 
Q 24.171875 66.40625 20.328125 58.90625 
Q 16.5 51.421875 16.5 36.375 
Q 16.5 21.390625 20.328125 13.890625 
Q 24.171875 6.390625 31.78125 6.390625 
Q 39.453125 6.390625 43.28125 13.890625 
Q 47.125 21.390625 47.125 36.375 
Q 47.125 51.421875 43.28125 58.90625 
Q 39.453125 66.40625 31.78125 66.40625 
z
M 31.78125 74.21875 
Q 44.046875 74.21875 50.515625 64.515625 
Q 56.984375 54.828125 56.984375 36.375 
Q 56.984375 17.96875 50.515625 8.265625 
Q 44.046875 -1.421875 31.78125 -1.421875 
Q 19.53125 -1.421875 13.0625 8.265625 
Q 6.59375 17.96875 6.59375 36.375 
Q 6.59375 54.828125 13.0625 64.515625 
Q 19.53125 74.21875 31.78125 74.21875 
z
" id="DejaVuSans-48"/>
       <path d="M 12.40625 8.296875 
L 28.515625 8.296875 
L 28.515625 63.921875 
L 10.984375 60.40625 
L 10.984375 69.390625 
L 28.421875 72.90625 
L 38.28125 72.90625 
L 38.28125 8.296875 
L 54.390625 8.296875 
L 54.390625 0 
L 12.40625 0 
z
" id="DejaVuSans-49"/>
       <path d="M 10.796875 72.90625 
L 49.515625 72.90625 
L 49.515625 64.59375 
L 19.828125 64.59375 
L 19.828125 46.734375 
Q 21.96875 47.46875 24.109375 47.828125 
Q 26.265625 48.1875 28.421875 48.1875 
Q 40.625 48.1875 47.75 41.5 
Q 54.890625 34.8125 54.890625 23.390625 
Q 54.890625 11.625 47.5625 5.09375 
Q 40.234375 -1.421875 26.90625 -1.421875 
Q 22.3125 -1.421875 17.546875 -0.640625 
Q 12.796875 0.140625 7.71875 1.703125 
L 7.71875 11.625 
Q 12.109375 9.234375 16.796875 8.0625 
Q 21.484375 6.890625 26.703125 6.890625 
Q 35.15625 6.890625 40.078125 11.328125 
Q 45.015625 15.765625 45.015625 23.390625 
Q 45.015625 31 40.078125 35.4375 
Q 35.15625 39.890625 26.703125 39.890625 
Q 22.75 39.890625 18.8125 39.015625 
Q 14.890625 38.140625 10.796875 36.28125 
z
" id="DejaVuSans-53"/>
      </defs>
      <g transform="translate(77.400931 608.630249)rotate(-30)scale(0.22 -0.22)">
       <use xlink:href="#DejaVuSans-50"/>
       <use x="63.623047" xlink:href="#DejaVuSans-48"/>
       <use x="127.246094" xlink:href="#DejaVuSans-49"/>
       <use x="190.869141" xlink:href="#DejaVuSans-53"/>
      </g>
     </g>
    </g>
    <g id="xtick_2">
     <g id="line2d_2">
      <g>
       <use style="stroke:#000000;stroke-width:0.8;" x="162.381429" xlink:href="#me1fde3e22f" y="559.158281"/>
      </g>
     </g>
     <g id="text_2">
      <!-- 2020 -->
      <g transform="translate(141.17236 608.630249)rotate(-30)scale(0.22 -0.22)">
       <use xlink:href="#DejaVuSans-50"/>
       <use x="63.623047" xlink:href="#DejaVuSans-48"/>
       <use x="127.246094" xlink:href="#DejaVuSans-50"/>
       <use x="190.869141" xlink:href="#DejaVuSans-48"/>
      </g>
     </g>
    </g>
    <g id="xtick_3">
     <g id="line2d_3">
      <g>
       <use style="stroke:#000000;stroke-width:0.8;" x="226.152857" xlink:href="#me1fde3e22f" y="559.158281"/>
      </g>
     </g>
     <g id="text_3">
      <!-- 2025 -->
      <g transform="translate(204.943788 608.630249)rotate(-30)scale(0.22 -0.22)">
       <use xlink:href="#DejaVuSans-50"/>
       <use x="63.623047" xlink:href="#DejaVuSans-48"/>
       <use x="127.246094" xlink:href="#DejaVuSans-50"/>
       <use x="190.869141" xlink:href="#DejaVuSans-53"/>
      </g>
     </g>
    </g>
    <g id="xtick_4">
     <g id="line2d_4">
      <g>
       <use style="stroke:#000000;stroke-width:0.8;" x="289.924286" xlink:href="#me1fde3e22f" y="559.158281"/>
      </g>
     </g>
     <g id="text_4">
      <!-- 2030 -->
      <defs>
       <path d="M 40.578125 39.3125 
Q 47.65625 37.796875 51.625 33 
Q 55.609375 28.21875 55.609375 21.1875 
Q 55.609375 10.40625 48.1875 4.484375 
Q 40.765625 -1.421875 27.09375 -1.421875 
Q 22.515625 -1.421875 17.65625 -0.515625 
Q 12.796875 0.390625 7.625 2.203125 
L 7.625 11.71875 
Q 11.71875 9.328125 16.59375 8.109375 
Q 21.484375 6.890625 26.8125 6.890625 
Q 36.078125 6.890625 40.9375 10.546875 
Q 45.796875 14.203125 45.796875 21.1875 
Q 45.796875 27.640625 41.28125 31.265625 
Q 36.765625 34.90625 28.71875 34.90625 
L 20.21875 34.90625 
L 20.21875 43.015625 
L 29.109375 43.015625 
Q 36.375 43.015625 40.234375 45.921875 
Q 44.09375 48.828125 44.09375 54.296875 
Q 44.09375 59.90625 40.109375 62.90625 
Q 36.140625 65.921875 28.71875 65.921875 
Q 24.65625 65.921875 20.015625 65.03125 
Q 15.375 64.15625 9.8125 62.3125 
L 9.8125 71.09375 
Q 15.4375 72.65625 20.34375 73.4375 
Q 25.25 74.21875 29.59375 74.21875 
Q 40.828125 74.21875 47.359375 69.109375 
Q 53.90625 64.015625 53.90625 55.328125 
Q 53.90625 49.265625 50.4375 45.09375 
Q 46.96875 40.921875 40.578125 39.3125 
z
" id="DejaVuSans-51"/>
      </defs>
      <g transform="translate(268.715217 608.630249)rotate(-30)scale(0.22 -0.22)">
       <use xlink:href="#DejaVuSans-50"/>
       <use x="63.623047" xlink:href="#DejaVuSans-48"/>
       <use x="127.246094" xlink:href="#DejaVuSans-51"/>
       <use x="190.869141" xlink:href="#DejaVuSans-48"/>
      </g>
     </g>
    </g>
    <g id="xtick_5">
     <g id="line2d_5">
      <g>
       <use style="stroke:#000000;stroke-width:0.8;" x="353.695714" xlink:href="#me1fde3e22f" y="559.158281"/>
      </g>
     </g>
     <g id="text_5">
      <!-- 2035 -->
      <g transform="translate(332.486646 608.630249)rotate(-30)scale(0.22 -0.22)">
       <use xlink:href="#DejaVuSans-50"/>
       <use x="63.623047" xlink:href="#DejaVuSans-48"/>
       <use x="127.246094" xlink:href="#DejaVuSans-51"/>
       <use x="190.869141" xlink:href="#DejaVuSans-53"/>
      </g>
     </g>
    </g>
    <g id="xtick_6">
     <g id="line2d_6">
      <g>
       <use style="stroke:#000000;stroke-width:0.8;" x="417.467143" xlink:href="#me1fde3e22f" y="559.158281"/>
      </g>
     </g>
     <g id="text_6">
      <!-- 2040 -->
      <defs>
       <path d="M 37.796875 64.3125 
L 12.890625 25.390625 
L 37.796875 25.390625 
z
M 35.203125 72.90625 
L 47.609375 72.90625 
L 47.609375 25.390625 
L 58.015625 25.390625 
L 58.015625 17.1875 
L 47.609375 17.1875 
L 47.609375 0 
L 37.796875 0 
L 37.796875 17.1875 
L 4.890625 17.1875 
L 4.890625 26.703125 
z
" id="DejaVuSans-52"/>
      </defs>
      <g transform="translate(396.258074 608.630249)rotate(-30)scale(0.22 -0.22)">
       <use xlink:href="#DejaVuSans-50"/>
       <use x="63.623047" xlink:href="#DejaVuSans-48"/>
       <use x="127.246094" xlink:href="#DejaVuSans-52"/>
       <use x="190.869141" xlink:href="#DejaVuSans-48"/>
      </g>
     </g>
    </g>
    <g id="xtick_7">
     <g id="line2d_7">
      <g>
       <use style="stroke:#000000;stroke-width:0.8;" x="481.238571" xlink:href="#me1fde3e22f" y="559.158281"/>
      </g>
     </g>
     <g id="text_7">
      <!-- 2045 -->
      <g transform="translate(460.029503 608.630249)rotate(-30)scale(0.22 -0.22)">
       <use xlink:href="#DejaVuSans-50"/>
       <use x="63.623047" xlink:href="#DejaVuSans-48"/>
       <use x="127.246094" xlink:href="#DejaVuSans-52"/>
       <use x="190.869141" xlink:href="#DejaVuSans-53"/>
      </g>
     </g>
    </g>
    <g id="xtick_8">
     <g id="line2d_8">
      <g>
       <use style="stroke:#000000;stroke-width:0.8;" x="545.01" xlink:href="#me1fde3e22f" y="559.158281"/>
      </g>
     </g>
     <g id="text_8">
      <!-- 2050 -->
      <g transform="translate(523.800931 608.630249)rotate(-30)scale(0.22 -0.22)">
       <use xlink:href="#DejaVuSans-50"/>
       <use x="63.623047" xlink:href="#DejaVuSans-48"/>
       <use x="127.246094" xlink:href="#DejaVuSans-53"/>
       <use x="190.869141" xlink:href="#DejaVuSans-48"/>
      </g>
     </g>
    </g>
   </g>
   <g id="matplotlib.axis_2">
    <g id="ytick_1">
     <g id="line2d_9">
      <defs>
       <path d="M 0 0 
L -3.5 0 
" id="mcc634500c0" style="stroke:#000000;stroke-width:0.8;"/>
      </defs>
      <g>
       <use style="stroke:#000000;stroke-width:0.8;" x="98.61" xlink:href="#mcc634500c0" y="559.158281"/>
      </g>
     </g>
     <g id="text_9">
      <!-- 0 -->
      <g transform="translate(77.6125 567.516563)scale(0.22 -0.22)">
       <use xlink:href="#DejaVuSans-48"/>
      </g>
     </g>
    </g>
    <g id="ytick_2">
     <g id="line2d_10">
      <g>
       <use style="stroke:#000000;stroke-width:0.8;" x="98.61" xlink:href="#mcc634500c0" y="468.558281"/>
      </g>
     </g>
     <g id="text_10">
      <!-- 200 -->
      <g transform="translate(49.6175 476.916563)scale(0.22 -0.22)">
       <use xlink:href="#DejaVuSans-50"/>
       <use x="63.623047" xlink:href="#DejaVuSans-48"/>
       <use x="127.246094" xlink:href="#DejaVuSans-48"/>
      </g>
     </g>
    </g>
    <g id="ytick_3">
     <g id="line2d_11">
      <g>
       <use style="stroke:#000000;stroke-width:0.8;" x="98.61" xlink:href="#mcc634500c0" y="377.958281"/>
      </g>
     </g>
     <g id="text_11">
      <!-- 400 -->
      <g transform="translate(49.6175 386.316563)scale(0.22 -0.22)">
       <use xlink:href="#DejaVuSans-52"/>
       <use x="63.623047" xlink:href="#DejaVuSans-48"/>
       <use x="127.246094" xlink:href="#DejaVuSans-48"/>
      </g>
     </g>
    </g>
    <g id="ytick_4">
     <g id="line2d_12">
      <g>
       <use style="stroke:#000000;stroke-width:0.8;" x="98.61" xlink:href="#mcc634500c0" y="287.358281"/>
      </g>
     </g>
     <g id="text_12">
      <!-- 600 -->
      <defs>
       <path d="M 33.015625 40.375 
Q 26.375 40.375 22.484375 35.828125 
Q 18.609375 31.296875 18.609375 23.390625 
Q 18.609375 15.53125 22.484375 10.953125 
Q 26.375 6.390625 33.015625 6.390625 
Q 39.65625 6.390625 43.53125 10.953125 
Q 47.40625 15.53125 47.40625 23.390625 
Q 47.40625 31.296875 43.53125 35.828125 
Q 39.65625 40.375 33.015625 40.375 
z
M 52.59375 71.296875 
L 52.59375 62.3125 
Q 48.875 64.0625 45.09375 64.984375 
Q 41.3125 65.921875 37.59375 65.921875 
Q 27.828125 65.921875 22.671875 59.328125 
Q 17.53125 52.734375 16.796875 39.40625 
Q 19.671875 43.65625 24.015625 45.921875 
Q 28.375 48.1875 33.59375 48.1875 
Q 44.578125 48.1875 50.953125 41.515625 
Q 57.328125 34.859375 57.328125 23.390625 
Q 57.328125 12.15625 50.6875 5.359375 
Q 44.046875 -1.421875 33.015625 -1.421875 
Q 20.359375 -1.421875 13.671875 8.265625 
Q 6.984375 17.96875 6.984375 36.375 
Q 6.984375 53.65625 15.1875 63.9375 
Q 23.390625 74.21875 37.203125 74.21875 
Q 40.921875 74.21875 44.703125 73.484375 
Q 48.484375 72.75 52.59375 71.296875 
z
" id="DejaVuSans-54"/>
      </defs>
      <g transform="translate(49.6175 295.716563)scale(0.22 -0.22)">
       <use xlink:href="#DejaVuSans-54"/>
       <use x="63.623047" xlink:href="#DejaVuSans-48"/>
       <use x="127.246094" xlink:href="#DejaVuSans-48"/>
      </g>
     </g>
    </g>
    <g id="ytick_5">
     <g id="line2d_13">
      <g>
       <use style="stroke:#000000;stroke-width:0.8;" x="98.61" xlink:href="#mcc634500c0" y="196.758281"/>
      </g>
     </g>
     <g id="text_13">
      <!-- 800 -->
      <defs>
       <path d="M 31.78125 34.625 
Q 24.75 34.625 20.71875 30.859375 
Q 16.703125 27.09375 16.703125 20.515625 
Q 16.703125 13.921875 20.71875 10.15625 
Q 24.75 6.390625 31.78125 6.390625 
Q 38.8125 6.390625 42.859375 10.171875 
Q 46.921875 13.96875 46.921875 20.515625 
Q 46.921875 27.09375 42.890625 30.859375 
Q 38.875 34.625 31.78125 34.625 
z
M 21.921875 38.8125 
Q 15.578125 40.375 12.03125 44.71875 
Q 8.5 49.078125 8.5 55.328125 
Q 8.5 64.0625 14.71875 69.140625 
Q 20.953125 74.21875 31.78125 74.21875 
Q 42.671875 74.21875 48.875 69.140625 
Q 55.078125 64.0625 55.078125 55.328125 
Q 55.078125 49.078125 51.53125 44.71875 
Q 48 40.375 41.703125 38.8125 
Q 48.828125 37.15625 52.796875 32.3125 
Q 56.78125 27.484375 56.78125 20.515625 
Q 56.78125 9.90625 50.3125 4.234375 
Q 43.84375 -1.421875 31.78125 -1.421875 
Q 19.734375 -1.421875 13.25 4.234375 
Q 6.78125 9.90625 6.78125 20.515625 
Q 6.78125 27.484375 10.78125 32.3125 
Q 14.796875 37.15625 21.921875 38.8125 
z
M 18.3125 54.390625 
Q 18.3125 48.734375 21.84375 45.5625 
Q 25.390625 42.390625 31.78125 42.390625 
Q 38.140625 42.390625 41.71875 45.5625 
Q 45.3125 48.734375 45.3125 54.390625 
Q 45.3125 60.0625 41.71875 63.234375 
Q 38.140625 66.40625 31.78125 66.40625 
Q 25.390625 66.40625 21.84375 63.234375 
Q 18.3125 60.0625 18.3125 54.390625 
z
" id="DejaVuSans-56"/>
      </defs>
      <g transform="translate(49.6175 205.116563)scale(0.22 -0.22)">
       <use xlink:href="#DejaVuSans-56"/>
       <use x="63.623047" xlink:href="#DejaVuSans-48"/>
       <use x="127.246094" xlink:href="#DejaVuSans-48"/>
      </g>
     </g>
    </g>
    <g id="ytick_6">
     <g id="line2d_14">
      <g>
       <use style="stroke:#000000;stroke-width:0.8;" x="98.61" xlink:href="#mcc634500c0" y="106.158281"/>
      </g>
     </g>
     <g id="text_14">
      <!-- 1000 -->
      <g transform="translate(35.62 114.516563)scale(0.22 -0.22)">
       <use xlink:href="#DejaVuSans-49"/>
       <use x="63.623047" xlink:href="#DejaVuSans-48"/>
       <use x="127.246094" xlink:href="#DejaVuSans-48"/>
       <use x="190.869141" xlink:href="#DejaVuSans-48"/>
      </g>
     </g>
    </g>
    <g id="ytick_7">
     <g id="line2d_15">
      <g>
       <use style="stroke:#000000;stroke-width:0.8;" x="98.61" xlink:href="#mcc634500c0" y="15.558281"/>
      </g>
     </g>
     <g id="text_15">
      <!-- 1200 -->
      <g transform="translate(35.62 23.916563)scale(0.22 -0.22)">
       <use xlink:href="#DejaVuSans-49"/>
       <use x="63.623047" xlink:href="#DejaVuSans-50"/>
       <use x="127.246094" xlink:href="#DejaVuSans-48"/>
       <use x="190.869141" xlink:href="#DejaVuSans-48"/>
      </g>
     </g>
    </g>
    <g id="text_16">
     <!-- Carbon footprint (Mt CO$_2$-e yr$^{-1}$) -->
     <defs>
      <path d="M 64.40625 67.28125 
L 64.40625 56.890625 
Q 59.421875 61.53125 53.78125 63.8125 
Q 48.140625 66.109375 41.796875 66.109375 
Q 29.296875 66.109375 22.65625 58.46875 
Q 16.015625 50.828125 16.015625 36.375 
Q 16.015625 21.96875 22.65625 14.328125 
Q 29.296875 6.6875 41.796875 6.6875 
Q 48.140625 6.6875 53.78125 8.984375 
Q 59.421875 11.28125 64.40625 15.921875 
L 64.40625 5.609375 
Q 59.234375 2.09375 53.4375 0.328125 
Q 47.65625 -1.421875 41.21875 -1.421875 
Q 24.65625 -1.421875 15.125 8.703125 
Q 5.609375 18.84375 5.609375 36.375 
Q 5.609375 53.953125 15.125 64.078125 
Q 24.65625 74.21875 41.21875 74.21875 
Q 47.75 74.21875 53.53125 72.484375 
Q 59.328125 70.75 64.40625 67.28125 
z
" id="DejaVuSans-67"/>
      <path d="M 34.28125 27.484375 
Q 23.390625 27.484375 19.1875 25 
Q 14.984375 22.515625 14.984375 16.5 
Q 14.984375 11.71875 18.140625 8.90625 
Q 21.296875 6.109375 26.703125 6.109375 
Q 34.1875 6.109375 38.703125 11.40625 
Q 43.21875 16.703125 43.21875 25.484375 
L 43.21875 27.484375 
z
M 52.203125 31.203125 
L 52.203125 0 
L 43.21875 0 
L 43.21875 8.296875 
Q 40.140625 3.328125 35.546875 0.953125 
Q 30.953125 -1.421875 24.3125 -1.421875 
Q 15.921875 -1.421875 10.953125 3.296875 
Q 6 8.015625 6 15.921875 
Q 6 25.140625 12.171875 29.828125 
Q 18.359375 34.515625 30.609375 34.515625 
L 43.21875 34.515625 
L 43.21875 35.40625 
Q 43.21875 41.609375 39.140625 45 
Q 35.0625 48.390625 27.6875 48.390625 
Q 23 48.390625 18.546875 47.265625 
Q 14.109375 46.140625 10.015625 43.890625 
L 10.015625 52.203125 
Q 14.9375 54.109375 19.578125 55.046875 
Q 24.21875 56 28.609375 56 
Q 40.484375 56 46.34375 49.84375 
Q 52.203125 43.703125 52.203125 31.203125 
z
" id="DejaVuSans-97"/>
      <path d="M 41.109375 46.296875 
Q 39.59375 47.171875 37.8125 47.578125 
Q 36.03125 48 33.890625 48 
Q 26.265625 48 22.1875 43.046875 
Q 18.109375 38.09375 18.109375 28.8125 
L 18.109375 0 
L 9.078125 0 
L 9.078125 54.6875 
L 18.109375 54.6875 
L 18.109375 46.1875 
Q 20.953125 51.171875 25.484375 53.578125 
Q 30.03125 56 36.53125 56 
Q 37.453125 56 38.578125 55.875 
Q 39.703125 55.765625 41.0625 55.515625 
z
" id="DejaVuSans-114"/>
      <path d="M 48.6875 27.296875 
Q 48.6875 37.203125 44.609375 42.84375 
Q 40.53125 48.484375 33.40625 48.484375 
Q 26.265625 48.484375 22.1875 42.84375 
Q 18.109375 37.203125 18.109375 27.296875 
Q 18.109375 17.390625 22.1875 11.75 
Q 26.265625 6.109375 33.40625 6.109375 
Q 40.53125 6.109375 44.609375 11.75 
Q 48.6875 17.390625 48.6875 27.296875 
z
M 18.109375 46.390625 
Q 20.953125 51.265625 25.265625 53.625 
Q 29.59375 56 35.59375 56 
Q 45.5625 56 51.78125 48.09375 
Q 58.015625 40.1875 58.015625 27.296875 
Q 58.015625 14.40625 51.78125 6.484375 
Q 45.5625 -1.421875 35.59375 -1.421875 
Q 29.59375 -1.421875 25.265625 0.953125 
Q 20.953125 3.328125 18.109375 8.203125 
L 18.109375 0 
L 9.078125 0 
L 9.078125 75.984375 
L 18.109375 75.984375 
z
" id="DejaVuSans-98"/>
      <path d="M 30.609375 48.390625 
Q 23.390625 48.390625 19.1875 42.75 
Q 14.984375 37.109375 14.984375 27.296875 
Q 14.984375 17.484375 19.15625 11.84375 
Q 23.34375 6.203125 30.609375 6.203125 
Q 37.796875 6.203125 41.984375 11.859375 
Q 46.1875 17.53125 46.1875 27.296875 
Q 46.1875 37.015625 41.984375 42.703125 
Q 37.796875 48.390625 30.609375 48.390625 
z
M 30.609375 56 
Q 42.328125 56 49.015625 48.375 
Q 55.71875 40.765625 55.71875 27.296875 
Q 55.71875 13.875 49.015625 6.21875 
Q 42.328125 -1.421875 30.609375 -1.421875 
Q 18.84375 -1.421875 12.171875 6.21875 
Q 5.515625 13.875 5.515625 27.296875 
Q 5.515625 40.765625 12.171875 48.375 
Q 18.84375 56 30.609375 56 
z
" id="DejaVuSans-111"/>
      <path d="M 54.890625 33.015625 
L 54.890625 0 
L 45.90625 0 
L 45.90625 32.71875 
Q 45.90625 40.484375 42.875 44.328125 
Q 39.84375 48.1875 33.796875 48.1875 
Q 26.515625 48.1875 22.3125 43.546875 
Q 18.109375 38.921875 18.109375 30.90625 
L 18.109375 0 
L 9.078125 0 
L 9.078125 54.6875 
L 18.109375 54.6875 
L 18.109375 46.1875 
Q 21.34375 51.125 25.703125 53.5625 
Q 30.078125 56 35.796875 56 
Q 45.21875 56 50.046875 50.171875 
Q 54.890625 44.34375 54.890625 33.015625 
z
" id="DejaVuSans-110"/>
      <path id="DejaVuSans-32"/>
      <path d="M 37.109375 75.984375 
L 37.109375 68.5 
L 28.515625 68.5 
Q 23.6875 68.5 21.796875 66.546875 
Q 19.921875 64.59375 19.921875 59.515625 
L 19.921875 54.6875 
L 34.71875 54.6875 
L 34.71875 47.703125 
L 19.921875 47.703125 
L 19.921875 0 
L 10.890625 0 
L 10.890625 47.703125 
L 2.296875 47.703125 
L 2.296875 54.6875 
L 10.890625 54.6875 
L 10.890625 58.5 
Q 10.890625 67.625 15.140625 71.796875 
Q 19.390625 75.984375 28.609375 75.984375 
z
" id="DejaVuSans-102"/>
      <path d="M 18.3125 70.21875 
L 18.3125 54.6875 
L 36.8125 54.6875 
L 36.8125 47.703125 
L 18.3125 47.703125 
L 18.3125 18.015625 
Q 18.3125 11.328125 20.140625 9.421875 
Q 21.96875 7.515625 27.59375 7.515625 
L 36.8125 7.515625 
L 36.8125 0 
L 27.59375 0 
Q 17.1875 0 13.234375 3.875 
Q 9.28125 7.765625 9.28125 18.015625 
L 9.28125 47.703125 
L 2.6875 47.703125 
L 2.6875 54.6875 
L 9.28125 54.6875 
L 9.28125 70.21875 
z
" id="DejaVuSans-116"/>
      <path d="M 18.109375 8.203125 
L 18.109375 -20.796875 
L 9.078125 -20.796875 
L 9.078125 54.6875 
L 18.109375 54.6875 
L 18.109375 46.390625 
Q 20.953125 51.265625 25.265625 53.625 
Q 29.59375 56 35.59375 56 
Q 45.5625 56 51.78125 48.09375 
Q 58.015625 40.1875 58.015625 27.296875 
Q 58.015625 14.40625 51.78125 6.484375 
Q 45.5625 -1.421875 35.59375 -1.421875 
Q 29.59375 -1.421875 25.265625 0.953125 
Q 20.953125 3.328125 18.109375 8.203125 
z
M 48.6875 27.296875 
Q 48.6875 37.203125 44.609375 42.84375 
Q 40.53125 48.484375 33.40625 48.484375 
Q 26.265625 48.484375 22.1875 42.84375 
Q 18.109375 37.203125 18.109375 27.296875 
Q 18.109375 17.390625 22.1875 11.75 
Q 26.265625 6.109375 33.40625 6.109375 
Q 40.53125 6.109375 44.609375 11.75 
Q 48.6875 17.390625 48.6875 27.296875 
z
" id="DejaVuSans-112"/>
      <path d="M 9.421875 54.6875 
L 18.40625 54.6875 
L 18.40625 0 
L 9.421875 0 
z
M 9.421875 75.984375 
L 18.40625 75.984375 
L 18.40625 64.59375 
L 9.421875 64.59375 
z
" id="DejaVuSans-105"/>
      <path d="M 31 75.875 
Q 24.46875 64.65625 21.28125 53.65625 
Q 18.109375 42.671875 18.109375 31.390625 
Q 18.109375 20.125 21.3125 9.0625 
Q 24.515625 -2 31 -13.1875 
L 23.1875 -13.1875 
Q 15.875 -1.703125 12.234375 9.375 
Q 8.59375 20.453125 8.59375 31.390625 
Q 8.59375 42.28125 12.203125 53.3125 
Q 15.828125 64.359375 23.1875 75.875 
z
" id="DejaVuSans-40"/>
      <path d="M 9.8125 72.90625 
L 24.515625 72.90625 
L 43.109375 23.296875 
L 61.8125 72.90625 
L 76.515625 72.90625 
L 76.515625 0 
L 66.890625 0 
L 66.890625 64.015625 
L 48.09375 14.015625 
L 38.1875 14.015625 
L 19.390625 64.015625 
L 19.390625 0 
L 9.8125 0 
z
" id="DejaVuSans-77"/>
      <path d="M 39.40625 66.21875 
Q 28.65625 66.21875 22.328125 58.203125 
Q 16.015625 50.203125 16.015625 36.375 
Q 16.015625 22.609375 22.328125 14.59375 
Q 28.65625 6.59375 39.40625 6.59375 
Q 50.140625 6.59375 56.421875 14.59375 
Q 62.703125 22.609375 62.703125 36.375 
Q 62.703125 50.203125 56.421875 58.203125 
Q 50.140625 66.21875 39.40625 66.21875 
z
M 39.40625 74.21875 
Q 54.734375 74.21875 63.90625 63.9375 
Q 73.09375 53.65625 73.09375 36.375 
Q 73.09375 19.140625 63.90625 8.859375 
Q 54.734375 -1.421875 39.40625 -1.421875 
Q 24.03125 -1.421875 14.8125 8.828125 
Q 5.609375 19.09375 5.609375 36.375 
Q 5.609375 53.65625 14.8125 63.9375 
Q 24.03125 74.21875 39.40625 74.21875 
z
" id="DejaVuSans-79"/>
      <path d="M 4.890625 31.390625 
L 31.203125 31.390625 
L 31.203125 23.390625 
L 4.890625 23.390625 
z
" id="DejaVuSans-45"/>
      <path d="M 56.203125 29.59375 
L 56.203125 25.203125 
L 14.890625 25.203125 
Q 15.484375 15.921875 20.484375 11.0625 
Q 25.484375 6.203125 34.421875 6.203125 
Q 39.59375 6.203125 44.453125 7.46875 
Q 49.3125 8.734375 54.109375 11.28125 
L 54.109375 2.78125 
Q 49.265625 0.734375 44.1875 -0.34375 
Q 39.109375 -1.421875 33.890625 -1.421875 
Q 20.796875 -1.421875 13.15625 6.1875 
Q 5.515625 13.8125 5.515625 26.8125 
Q 5.515625 40.234375 12.765625 48.109375 
Q 20.015625 56 32.328125 56 
Q 43.359375 56 49.78125 48.890625 
Q 56.203125 41.796875 56.203125 29.59375 
z
M 47.21875 32.234375 
Q 47.125 39.59375 43.09375 43.984375 
Q 39.0625 48.390625 32.421875 48.390625 
Q 24.90625 48.390625 20.390625 44.140625 
Q 15.875 39.890625 15.1875 32.171875 
z
" id="DejaVuSans-101"/>
      <path d="M 32.171875 -5.078125 
Q 28.375 -14.84375 24.75 -17.8125 
Q 21.140625 -20.796875 15.09375 -20.796875 
L 7.90625 -20.796875 
L 7.90625 -13.28125 
L 13.1875 -13.28125 
Q 16.890625 -13.28125 18.9375 -11.515625 
Q 21 -9.765625 23.484375 -3.21875 
L 25.09375 0.875 
L 2.984375 54.6875 
L 12.5 54.6875 
L 29.59375 11.921875 
L 46.6875 54.6875 
L 56.203125 54.6875 
z
" id="DejaVuSans-121"/>
      <path d="M 10.59375 35.5 
L 73.1875 35.5 
L 73.1875 27.203125 
L 10.59375 27.203125 
z
" id="DejaVuSans-8722"/>
      <path d="M 8.015625 75.875 
L 15.828125 75.875 
Q 23.140625 64.359375 26.78125 53.3125 
Q 30.421875 42.28125 30.421875 31.390625 
Q 30.421875 20.453125 26.78125 9.375 
Q 23.140625 -1.703125 15.828125 -13.1875 
L 8.015625 -13.1875 
Q 14.5 -2 17.703125 9.0625 
Q 20.90625 20.125 20.90625 31.390625 
Q 20.90625 42.671875 17.703125 53.65625 
Q 14.5 64.65625 8.015625 75.875 
z
" id="DejaVuSans-41"/>
     </defs>
     <g transform="translate(27 466.108281)rotate(-90)scale(0.22 -0.22)">
      <use transform="translate(0 0.684375)" xlink:href="#DejaVuSans-67"/>
      <use transform="translate(69.824219 0.684375)" xlink:href="#DejaVuSans-97"/>
      <use transform="translate(131.103516 0.684375)" xlink:href="#DejaVuSans-114"/>
      <use transform="translate(172.216797 0.684375)" xlink:href="#DejaVuSans-98"/>
      <use transform="translate(235.693359 0.684375)" xlink:href="#DejaVuSans-111"/>
      <use transform="translate(296.875 0.684375)" xlink:href="#DejaVuSans-110"/>
      <use transform="translate(360.253906 0.684375)" xlink:href="#DejaVuSans-32"/>
      <use transform="translate(392.041016 0.684375)" xlink:href="#DejaVuSans-102"/>
      <use transform="translate(427.246094 0.684375)" xlink:href="#DejaVuSans-111"/>
      <use transform="translate(488.427734 0.684375)" xlink:href="#DejaVuSans-111"/>
      <use transform="translate(549.609375 0.684375)" xlink:href="#DejaVuSans-116"/>
      <use transform="translate(588.818359 0.684375)" xlink:href="#DejaVuSans-112"/>
      <use transform="translate(652.294922 0.684375)" xlink:href="#DejaVuSans-114"/>
      <use transform="translate(693.408203 0.684375)" xlink:href="#DejaVuSans-105"/>
      <use transform="translate(721.191406 0.684375)" xlink:href="#DejaVuSans-110"/>
      <use transform="translate(784.570312 0.684375)" xlink:href="#DejaVuSans-116"/>
      <use transform="translate(823.779297 0.684375)" xlink:href="#DejaVuSans-32"/>
      <use transform="translate(855.566406 0.684375)" xlink:href="#DejaVuSans-40"/>
      <use transform="translate(894.580078 0.684375)" xlink:href="#DejaVuSans-77"/>
      <use transform="translate(980.859375 0.684375)" xlink:href="#DejaVuSans-116"/>
      <use transform="translate(1020.068359 0.684375)" xlink:href="#DejaVuSans-32"/>
      <use transform="translate(1051.855469 0.684375)" xlink:href="#DejaVuSans-67"/>
      <use transform="translate(1121.679688 0.684375)" xlink:href="#DejaVuSans-79"/>
      <use transform="translate(1201.347656 -15.721875)scale(0.7)" xlink:href="#DejaVuSans-50"/>
      <use transform="translate(1248.618164 0.684375)" xlink:href="#DejaVuSans-45"/>
      <use transform="translate(1284.702148 0.684375)" xlink:href="#DejaVuSans-101"/>
      <use transform="translate(1346.225586 0.684375)" xlink:href="#DejaVuSans-32"/>
      <use transform="translate(1378.012695 0.684375)" xlink:href="#DejaVuSans-121"/>
      <use transform="translate(1437.192383 0.684375)" xlink:href="#DejaVuSans-114"/>
      <use transform="translate(1479.262695 38.965625)scale(0.7)" xlink:href="#DejaVuSans-8722"/>
      <use transform="translate(1537.915039 38.965625)scale(0.7)" xlink:href="#DejaVuSans-49"/>
      <use transform="translate(1585.185547 0.684375)" xlink:href="#DejaVuSans-41"/>
     </g>
    </g>
   </g>
   <g id="LineCollection_1">
    <path clip-path="url(#p0fb2172177)" d="M 98.61 257.913281 
L 582.77735 257.913281 
" style="fill:none;stroke:#d3d3d3;stroke-dasharray:5.55,2.4;stroke-dashoffset:0;stroke-width:1.5;"/>
   </g>
   <g id="LineCollection_2">
    <path clip-path="url(#p0fb2172177)" d="M 98.61 496.644281 
L 582.77735 496.644281 
" style="fill:none;stroke:#d3d3d3;stroke-dasharray:5.55,2.4;stroke-dashoffset:0;stroke-width:1.5;"/>
   </g>
   <g id="LineCollection_3">
    <path clip-path="url(#p0fb2172177)" d="M 98.61 449.079281 
L 582.77735 449.079281 
" style="fill:none;stroke:#d3d3d3;stroke-dasharray:5.55,2.4;stroke-dashoffset:0;stroke-width:1.5;"/>
   </g>
   <g id="LineCollection_4">
    <path clip-path="url(#p0fb2172177)" d="M 98.61 544.209281 
L 582.77735 544.209281 
" style="fill:none;stroke:#008000;stroke-dasharray:5.55,2.4;stroke-dashoffset:0;stroke-width:1.5;"/>
   </g>
   <g id="line2d_16">
    <path clip-path="url(#p0fb2172177)" d="M 98.61 35.803599 
L 162.381429 35.210111 
L 226.152857 39.240856 
L 289.924286 45.791592 
L 353.695714 54.42457 
L 417.467143 65.495904 
L 481.238571 70.99772 
L 545.01 81.689286 
" style="fill:none;stroke:#696969;stroke-dasharray:5.55,2.4;stroke-dashoffset:0;stroke-width:1.5;"/>
    <defs>
     <path d="M 0 5 
C 1.326016 5 2.597899 4.473168 3.535534 3.535534 
C 4.473168 2.597899 5 1.326016 5 0 
C 5 -1.326016 4.473168 -2.597899 3.535534 -3.535534 
C 2.597899 -4.473168 1.326016 -5 0 -5 
C -1.326016 -5 -2.597899 -4.473168 -3.535534 -3.535534 
C -4.473168 -2.597899 -5 -1.326016 -5 0 
C -5 1.326016 -4.473168 2.597899 -3.535534 3.535534 
C -2.597899 4.473168 -1.326016 5 0 5 
z
" id="m8406d9f9cb" style="stroke:#696969;"/>
    </defs>
    <g clip-path="url(#p0fb2172177)">
     <use style="stroke:#696969;" x="98.61" xlink:href="#m8406d9f9cb" y="35.803599"/>
     <use style="stroke:#696969;" x="162.381429" xlink:href="#m8406d9f9cb" y="35.210111"/>
     <use style="stroke:#696969;" x="226.152857" xlink:href="#m8406d9f9cb" y="39.240856"/>
     <use style="stroke:#696969;" x="289.924286" xlink:href="#m8406d9f9cb" y="45.791592"/>
     <use style="stroke:#696969;" x="353.695714" xlink:href="#m8406d9f9cb" y="54.42457"/>
     <use style="stroke:#696969;" x="417.467143" xlink:href="#m8406d9f9cb" y="65.495904"/>
     <use style="stroke:#696969;" x="481.238571" xlink:href="#m8406d9f9cb" y="70.99772"/>
     <use style="stroke:#696969;" x="545.01" xlink:href="#m8406d9f9cb" y="81.689286"/>
    </g>
   </g>
   <g id="line2d_17">
    <path clip-path="url(#p0fb2172177)" d="M 98.61 35.803599 
L 162.381429 67.960325 
L 226.152857 76.541885 
L 289.924286 87.567267 
L 353.695714 135.389377 
L 417.467143 167.785375 
L 481.238571 195.928624 
L 545.01 227.206131 
" style="fill:none;stroke:#239e70;stroke-dasharray:5.55,2.4;stroke-dashoffset:0;stroke-width:1.5;"/>
    <defs>
     <path d="M 0 5 
C 1.326016 5 2.597899 4.473168 3.535534 3.535534 
C 4.473168 2.597899 5 1.326016 5 0 
C 5 -1.326016 4.473168 -2.597899 3.535534 -3.535534 
C 2.597899 -4.473168 1.326016 -5 0 -5 
C -1.326016 -5 -2.597899 -4.473168 -3.535534 -3.535534 
C -4.473168 -2.597899 -5 -1.326016 -5 0 
C -5 1.326016 -4.473168 2.597899 -3.535534 3.535534 
C -2.597899 4.473168 -1.326016 5 0 5 
z
" id="m9f0100e91f" style="stroke:#239e70;"/>
    </defs>
    <g clip-path="url(#p0fb2172177)">
     <use style="fill:#239e70;stroke:#239e70;" x="98.61" xlink:href="#m9f0100e91f" y="35.803599"/>
     <use style="fill:#239e70;stroke:#239e70;" x="162.381429" xlink:href="#m9f0100e91f" y="67.960325"/>
     <use style="fill:#239e70;stroke:#239e70;" x="226.152857" xlink:href="#m9f0100e91f" y="76.541885"/>
     <use style="fill:#239e70;stroke:#239e70;" x="289.924286" xlink:href="#m9f0100e91f" y="87.567267"/>
     <use style="fill:#239e70;stroke:#239e70;" x="353.695714" xlink:href="#m9f0100e91f" y="135.389377"/>
     <use style="fill:#239e70;stroke:#239e70;" x="417.467143" xlink:href="#m9f0100e91f" y="167.785375"/>
     <use style="fill:#239e70;stroke:#239e70;" x="481.238571" xlink:href="#m9f0100e91f" y="195.928624"/>
     <use style="fill:#239e70;stroke:#239e70;" x="545.01" xlink:href="#m9f0100e91f" y="227.206131"/>
    </g>
   </g>
   <g id="line2d_18">
    <path clip-path="url(#p0fb2172177)" d="M 98.61 35.803599 
L 162.381429 90.736831 
L 226.152857 136.58279 
L 289.924286 188.546365 
L 353.695714 239.917143 
L 417.467143 283.774905 
L 481.238571 318.99905 
L 545.01 353.583584 
" style="fill:none;stroke:#d37211;stroke-dasharray:7.4,3.2;stroke-dashoffset:0;stroke-width:2;"/>
    <defs>
     <path d="M 0 5 
C 1.326016 5 2.597899 4.473168 3.535534 3.535534 
C 4.473168 2.597899 5 1.326016 5 0 
C 5 -1.326016 4.473168 -2.597899 3.535534 -3.535534 
C 2.597899 -4.473168 1.326016 -5 0 -5 
C -1.326016 -5 -2.597899 -4.473168 -3.535534 -3.535534 
C -4.473168 -2.597899 -5 -1.326016 -5 0 
C -5 1.326016 -4.473168 2.597899 -3.535534 3.535534 
C -2.597899 4.473168 -1.326016 5 0 5 
z
" id="m2def835a54" style="stroke:#d37211;stroke-width:2;"/>
    </defs>
    <g clip-path="url(#p0fb2172177)">
     <use style="fill:#d37211;stroke:#d37211;stroke-width:2;" x="98.61" xlink:href="#m2def835a54" y="35.803599"/>
     <use style="fill:#d37211;stroke:#d37211;stroke-width:2;" x="162.381429" xlink:href="#m2def835a54" y="90.736831"/>
     <use style="fill:#d37211;stroke:#d37211;stroke-width:2;" x="226.152857" xlink:href="#m2def835a54" y="136.58279"/>
     <use style="fill:#d37211;stroke:#d37211;stroke-width:2;" x="289.924286" xlink:href="#m2def835a54" y="188.546365"/>
     <use style="fill:#d37211;stroke:#d37211;stroke-width:2;" x="353.695714" xlink:href="#m2def835a54" y="239.917143"/>
     <use style="fill:#d37211;stroke:#d37211;stroke-width:2;" x="417.467143" xlink:href="#m2def835a54" y="283.774905"/>
     <use style="fill:#d37211;stroke:#d37211;stroke-width:2;" x="481.238571" xlink:href="#m2def835a54" y="318.99905"/>
     <use style="fill:#d37211;stroke:#d37211;stroke-width:2;" x="545.01" xlink:href="#m2def835a54" y="353.583584"/>
    </g>
   </g>
   <g id="line2d_19">
    <path clip-path="url(#p0fb2172177)" d="M 98.61 35.803599 
L 162.381429 110.919096 
L 226.152857 174.706094 
L 289.924286 236.91366 
L 353.695714 294.996142 
L 417.467143 342.898923 
L 481.238571 385.844042 
L 545.01 414.970469 
" style="fill:none;stroke:#d37211;stroke-dasharray:7.4,3.2;stroke-dashoffset:0;stroke-width:2;"/>
    <defs>
     <path d="M 0 5 
C 1.326016 5 2.597899 4.473168 3.535534 3.535534 
C 4.473168 2.597899 5 1.326016 5 0 
C 5 -1.326016 4.473168 -2.597899 3.535534 -3.535534 
C 2.597899 -4.473168 1.326016 -5 0 -5 
C -1.326016 -5 -2.597899 -4.473168 -3.535534 -3.535534 
C -4.473168 -2.597899 -5 -1.326016 -5 0 
C -5 1.326016 -4.473168 2.597899 -3.535534 3.535534 
C -2.597899 4.473168 -1.326016 5 0 5 
z
" id="m8e7ea5830e" style="stroke:#d37211;stroke-width:2;"/>
    </defs>
    <g clip-path="url(#p0fb2172177)">
     <use style="fill:#ffd6a4;stroke:#d37211;stroke-width:2;" x="98.61" xlink:href="#m8e7ea5830e" y="35.803599"/>
     <use style="fill:#ffd6a4;stroke:#d37211;stroke-width:2;" x="162.381429" xlink:href="#m8e7ea5830e" y="110.919096"/>
     <use style="fill:#ffd6a4;stroke:#d37211;stroke-width:2;" x="226.152857" xlink:href="#m8e7ea5830e" y="174.706094"/>
     <use style="fill:#ffd6a4;stroke:#d37211;stroke-width:2;" x="289.924286" xlink:href="#m8e7ea5830e" y="236.91366"/>
     <use style="fill:#ffd6a4;stroke:#d37211;stroke-width:2;" x="353.695714" xlink:href="#m8e7ea5830e" y="294.996142"/>
     <use style="fill:#ffd6a4;stroke:#d37211;stroke-width:2;" x="417.467143" xlink:href="#m8e7ea5830e" y="342.898923"/>
     <use style="fill:#ffd6a4;stroke:#d37211;stroke-width:2;" x="481.238571" xlink:href="#m8e7ea5830e" y="385.844042"/>
     <use style="fill:#ffd6a4;stroke:#d37211;stroke-width:2;" x="545.01" xlink:href="#m8e7ea5830e" y="414.970469"/>
    </g>
   </g>
   <g id="line2d_20">
    <path clip-path="url(#p0fb2172177)" d="M 98.61 35.803599 
L 162.381429 130.838269 
L 226.152857 210.502839 
L 289.924286 280.960462 
L 353.695714 348.439602 
L 417.467143 391.339861 
L 481.238571 432.389134 
L 545.01 462.475483 
" style="fill:none;stroke:#d37211;stroke-dasharray:7.4,3.2;stroke-dashoffset:0;stroke-width:2;"/>
    <defs>
     <path d="M 0 5 
C 1.326016 5 2.597899 4.473168 3.535534 3.535534 
C 4.473168 2.597899 5 1.326016 5 0 
C 5 -1.326016 4.473168 -2.597899 3.535534 -3.535534 
C 2.597899 -4.473168 1.326016 -5 0 -5 
C -1.326016 -5 -2.597899 -4.473168 -3.535534 -3.535534 
C -4.473168 -2.597899 -5 -1.326016 -5 0 
C -5 1.326016 -4.473168 2.597899 -3.535534 3.535534 
C -2.597899 4.473168 -1.326016 5 0 5 
z
" id="m86292d2619" style="stroke:#d37211;stroke-width:2;"/>
    </defs>
    <g clip-path="url(#p0fb2172177)">
     <use style="fill:#ffffff;stroke:#d37211;stroke-width:2;" x="98.61" xlink:href="#m86292d2619" y="35.803599"/>
     <use style="fill:#ffffff;stroke:#d37211;stroke-width:2;" x="162.381429" xlink:href="#m86292d2619" y="130.838269"/>
     <use style="fill:#ffffff;stroke:#d37211;stroke-width:2;" x="226.152857" xlink:href="#m86292d2619" y="210.502839"/>
     <use style="fill:#ffffff;stroke:#d37211;stroke-width:2;" x="289.924286" xlink:href="#m86292d2619" y="280.960462"/>
     <use style="fill:#ffffff;stroke:#d37211;stroke-width:2;" x="353.695714" xlink:href="#m86292d2619" y="348.439602"/>
     <use style="fill:#ffffff;stroke:#d37211;stroke-width:2;" x="417.467143" xlink:href="#m86292d2619" y="391.339861"/>
     <use style="fill:#ffffff;stroke:#d37211;stroke-width:2;" x="481.238571" xlink:href="#m86292d2619" y="432.389134"/>
     <use style="fill:#ffffff;stroke:#d37211;stroke-width:2;" x="545.01" xlink:href="#m86292d2619" y="462.475483"/>
    </g>
   </g>
   <g id="line2d_21">
    <path clip-path="url(#p0fb2172177)" d="M 98.61 35.803599 
L 162.381429 139.099061 
L 226.152857 231.016959 
L 289.924286 302.363549 
L 353.695714 361.142894 
L 417.467143 410.848983 
L 481.238571 445.402189 
L 545.01 471.988174 
" style="fill:none;stroke:#0c508e;stroke-dasharray:7.4,3.2;stroke-dashoffset:0;stroke-width:2;"/>
    <defs>
     <path d="M 0 5 
C 1.326016 5 2.597899 4.473168 3.535534 3.535534 
C 4.473168 2.597899 5 1.326016 5 0 
C 5 -1.326016 4.473168 -2.597899 3.535534 -3.535534 
C 2.597899 -4.473168 1.326016 -5 0 -5 
C -1.326016 -5 -2.597899 -4.473168 -3.535534 -3.535534 
C -4.473168 -2.597899 -5 -1.326016 -5 0 
C -5 1.326016 -4.473168 2.597899 -3.535534 3.535534 
C -2.597899 4.473168 -1.326016 5 0 5 
z
" id="m78ff542843" style="stroke:#0c508e;stroke-width:2;"/>
    </defs>
    <g clip-path="url(#p0fb2172177)">
     <use style="fill:#ffffff;stroke:#0c508e;stroke-width:2;" x="98.61" xlink:href="#m78ff542843" y="35.803599"/>
     <use style="fill:#ffffff;stroke:#0c508e;stroke-width:2;" x="162.381429" xlink:href="#m78ff542843" y="139.099061"/>
     <use style="fill:#ffffff;stroke:#0c508e;stroke-width:2;" x="226.152857" xlink:href="#m78ff542843" y="231.016959"/>
     <use style="fill:#ffffff;stroke:#0c508e;stroke-width:2;" x="289.924286" xlink:href="#m78ff542843" y="302.363549"/>
     <use style="fill:#ffffff;stroke:#0c508e;stroke-width:2;" x="353.695714" xlink:href="#m78ff542843" y="361.142894"/>
     <use style="fill:#ffffff;stroke:#0c508e;stroke-width:2;" x="417.467143" xlink:href="#m78ff542843" y="410.848983"/>
     <use style="fill:#ffffff;stroke:#0c508e;stroke-width:2;" x="481.238571" xlink:href="#m78ff542843" y="445.402189"/>
     <use style="fill:#ffffff;stroke:#0c508e;stroke-width:2;" x="545.01" xlink:href="#m78ff542843" y="471.988174"/>
    </g>
   </g>
   <g id="line2d_22">
    <path clip-path="url(#p0fb2172177)" d="M 98.61 35.803599 
L 162.381429 139.099061 
L 226.152857 226.821144 
L 289.924286 296.119745 
L 353.695714 354.264044 
L 417.467143 403.770918 
L 481.238571 439.456412 
L 545.01 467.216735 
" style="fill:none;stroke:#dd335f;stroke-dasharray:7.4,3.2;stroke-dashoffset:0;stroke-width:2;"/>
    <defs>
     <path d="M 0 5 
C 1.326016 5 2.597899 4.473168 3.535534 3.535534 
C 4.473168 2.597899 5 1.326016 5 0 
C 5 -1.326016 4.473168 -2.597899 3.535534 -3.535534 
C 2.597899 -4.473168 1.326016 -5 0 -5 
C -1.326016 -5 -2.597899 -4.473168 -3.535534 -3.535534 
C -4.473168 -2.597899 -5 -1.326016 -5 0 
C -5 1.326016 -4.473168 2.597899 -3.535534 3.535534 
C -2.597899 4.473168 -1.326016 5 0 5 
z
" id="m4e72d4e85c" style="stroke:#dd335f;stroke-width:2;"/>
    </defs>
    <g clip-path="url(#p0fb2172177)">
     <use style="fill:#ffffff;stroke:#dd335f;stroke-width:2;" x="98.61" xlink:href="#m4e72d4e85c" y="35.803599"/>
     <use style="fill:#ffffff;stroke:#dd335f;stroke-width:2;" x="162.381429" xlink:href="#m4e72d4e85c" y="139.099061"/>
     <use style="fill:#ffffff;stroke:#dd335f;stroke-width:2;" x="226.152857" xlink:href="#m4e72d4e85c" y="226.821144"/>
     <use style="fill:#ffffff;stroke:#dd335f;stroke-width:2;" x="289.924286" xlink:href="#m4e72d4e85c" y="296.119745"/>
     <use style="fill:#ffffff;stroke:#dd335f;stroke-width:2;" x="353.695714" xlink:href="#m4e72d4e85c" y="354.264044"/>
     <use style="fill:#ffffff;stroke:#dd335f;stroke-width:2;" x="417.467143" xlink:href="#m4e72d4e85c" y="403.770918"/>
     <use style="fill:#ffffff;stroke:#dd335f;stroke-width:2;" x="481.238571" xlink:href="#m4e72d4e85c" y="439.456412"/>
     <use style="fill:#ffffff;stroke:#dd335f;stroke-width:2;" x="545.01" xlink:href="#m4e72d4e85c" y="467.216735"/>
    </g>
   </g>
   <g id="patch_3">
    <path d="M 98.61 559.158281 
L 98.61 15.558281 
" style="fill:none;stroke:#000000;stroke-linecap:square;stroke-linejoin:miter;stroke-width:0.8;"/>
   </g>
   <g id="patch_4">
    <path d="M 545.01 559.158281 
L 545.01 15.558281 
" style="fill:none;stroke:#000000;stroke-linecap:square;stroke-linejoin:miter;stroke-width:0.8;"/>
   </g>
   <g id="patch_5">
    <path d="M 98.61 559.158281 
L 545.01 559.158281 
" style="fill:none;stroke:#000000;stroke-linecap:square;stroke-linejoin:miter;stroke-width:0.8;"/>
   </g>
   <g id="patch_6">
    <path d="M 98.61 15.558281 
L 545.01 15.558281 
" style="fill:none;stroke:#000000;stroke-linecap:square;stroke-linejoin:miter;stroke-width:0.8;"/>
   </g>
  </g>
 </g>
 <defs>
  <clipPath id="p0fb2172177">
   <rect height="543.6" width="446.4" x="98.61" y="15.558281"/>
  </clipPath>
 </defs>
</svg>
